<?xml version="1.0" encoding="UTF-8" standalone="no"?>
<svg
   xmlns:dc="http://purl.org/dc/elements/1.1/"
   xmlns:cc="http://creativecommons.org/ns#"
   xmlns:rdf="http://www.w3.org/1999/02/22-rdf-syntax-ns#"
   xmlns:svg="http://www.w3.org/2000/svg"
   xmlns="http://www.w3.org/2000/svg"
   viewBox="0 0 1257.9998 381.23626"
   height="381.23627"
   width="1257.9998"
   xml:space="preserve"
   id="svg2"
   version="1.1"><metadata
     id="metadata8"><rdf:RDF><cc:Work
         rdf:about=""><dc:format>image/svg+xml</dc:format><dc:type
           rdf:resource="http://purl.org/dc/dcmitype/StillImage" /><dc:title></dc:title></cc:Work></rdf:RDF></metadata><defs
     id="defs6" /><g
     transform="matrix(1.3333333,0,0,-1.3333333,-4040.9954,2015.9753)"
     id="g10"><path
       d="m 3145.53,1433.5257 c 3.614,0 6.48,-1.374 8.602,-4.114 2.244,-2.743 2.992,-5.797 2.244,-9.162 l -4.301,-19.26 c -1.87,-12.093 -6.545,-17.454 -14.024,-16.08 -10.845,1.743 -21.568,-1.248 -32.162,-8.976 -9.348,-6.857 -14.71,-13.775 -16.08,-20.755 -0.252,-1.248 -0.438,-2.744 -0.561,-4.488 v -0.187 h -0.187 v -79.469 c 0,-7.853 -2.805,-14.584 -8.415,-20.195 -5.609,-5.734 -12.405,-8.6 -20.381,-8.6 h -0.561 c -7.979,0 -14.772,2.866 -20.381,8.6 -5.609,5.611 -8.415,12.342 -8.415,20.195 v 127.711 c 0,7.976 2.806,14.833 8.415,20.569 5.732,5.609 12.589,8.414 20.568,8.414 h 0.935 c 10.72,0 20.382,-6.297 28.983,-18.886 4.114,6.358 8.162,10.907 12.154,13.65 0.104,0.074 0.209,0.147 0.312,0.22 10.025,7.039 21.97,10.813 34.219,10.813 z"
       style="fill:#0066f1;fill-opacity:1;fill-rule:nonzero;stroke:none"
       id="path26" /><path
       d="m 3270.2488,1386.9657 c -10.597,0 -20.258,-2.93 -28.982,-8.788 -8.479,-5.735 -14.71,-13.276 -18.699,-22.626 h 95.176 c -3.866,9.35 -10.036,16.891 -18.512,22.626 -8.726,5.858 -18.388,8.788 -28.983,8.788 m 82.835,-127.898 c -1.122,-4.861 -3.617,-8.852 -7.48,-11.966 -3.991,-3.118 -8.478,-4.736 -13.462,-4.862 -18.325,-0.122 -37.087,-0.187 -56.283,-0.187 -1.87,0 -3.74,0.065 -5.61,0.187 -1.869,-0.122 -3.739,-0.187 -5.609,-0.187 -26.803,0 -49.738,9.224 -68.81,27.673 -18.95,18.448 -28.422,40.699 -28.422,66.754 0,26.178 9.472,48.49 28.422,66.941 19.072,18.447 42.007,27.673 68.81,27.673 1.87,0 3.74,-0.064 5.609,-0.186 1.87,0.122 3.74,0.186 5.61,0.186 26.8,0 49.674,-9.226 68.623,-27.673 19.073,-18.451 28.609,-40.763 28.609,-66.941 v -0.186 c 0,-4.863 -1.808,-9.04 -5.422,-12.529 -3.617,-3.365 -7.918,-5.048 -12.902,-5.048 h -132.573 c 3.741,-9.723 9.91,-17.515 18.512,-23.374 8.85,-6.109 18.698,-9.162 29.543,-9.162 h 61.706 c 6.98,0.123 12.65,-2.617 17.015,-8.227 4.488,-5.487 5.92,-11.657 4.3,-18.511 z"
       style="fill:#0066f1;fill-opacity:1;fill-rule:nonzero;stroke:none"
       id="path30" /><path
       d="m 3453.8689,1337.9759 c 0,-14.088 3.739,-26.116 11.219,-36.089 7.601,-9.849 16.764,-14.771 27.486,-14.771 6.358,-0.999 12.716,-0.439 19.072,1.683 12.716,4.237 19.26,14.146 19.634,29.731 v 46.746 c -2.869,7.727 -9.723,13.712 -20.568,17.951 -12.466,4.86 -24.933,4.235 -37.397,-1.871 -5.983,-2.869 -10.784,-8.227 -14.398,-16.08 -3.365,-7.48 -5.048,-15.832 -5.048,-25.056 z m 77.411,81.151 v 61.705 c 0,7.976 2.866,14.833 8.602,20.569 5.732,5.732 12.589,8.601 20.568,8.601 h 0.748 c 7.976,0 14.833,-2.869 20.568,-8.601 5.733,-5.736 8.601,-12.593 8.601,-20.569 v -226.812 c 0,-3.366 -1.186,-6.235 -3.552,-8.602 -2.37,-2.243 -5.175,-3.365 -8.415,-3.365 h -35.153 c -3.365,0 -6.17,1.122 -8.414,3.365 -2.369,2.367 -3.553,5.171 -3.553,8.415 v 0.187 c -13.588,-7.98 -28.112,-11.967 -43.567,-11.967 -24.808,0 -45.998,9.224 -63.574,27.673 -17.578,18.447 -26.366,40.699 -26.366,66.754 0,26.178 8.788,48.49 26.366,66.941 17.576,18.447 38.766,27.673 63.574,27.673 15.455,0 29.979,-3.991 43.567,-11.967"
       style="fill:#0066f1;fill-opacity:1;fill-rule:nonzero;stroke:none"
       id="path34" /><path
       d="m 3715.4597,1386.9657 c -10.597,0 -20.259,-2.93 -28.982,-8.788 -8.479,-5.735 -14.711,-13.276 -18.699,-22.626 h 95.175 c -3.865,9.35 -10.035,16.891 -18.511,22.626 -8.727,5.858 -18.389,8.788 -28.983,8.788 m 82.835,-127.898 c -1.122,-4.861 -3.617,-8.852 -7.48,-11.966 -3.991,-3.118 -8.478,-4.736 -13.462,-4.862 -18.326,-0.122 -37.088,-0.187 -56.284,-0.187 -1.869,0 -3.739,0.065 -5.609,0.187 -1.869,-0.122 -3.739,-0.187 -5.609,-0.187 -26.803,0 -49.738,9.224 -68.811,27.673 -18.949,18.448 -28.422,40.699 -28.422,66.754 0,26.178 9.473,48.49 28.422,66.941 19.073,18.447 42.008,27.673 68.811,27.673 1.87,0 3.74,-0.064 5.609,-0.186 1.87,0.122 3.74,0.186 5.609,0.186 26.801,0 49.674,-9.226 68.624,-27.673 19.073,-18.451 28.609,-40.763 28.609,-66.941 v -0.186 c 0,-4.863 -1.809,-9.04 -5.423,-12.529 -3.616,-3.365 -7.917,-5.048 -12.901,-5.048 h -132.573 c 3.74,-9.723 9.91,-17.515 18.512,-23.374 8.849,-6.109 18.698,-9.162 29.543,-9.162 h 61.705 c 6.981,0.123 12.651,-2.617 17.016,-8.227 4.487,-5.487 5.92,-11.657 4.3,-18.511 z"
       style="fill:#0066f1;fill-opacity:1;fill-rule:nonzero;stroke:none"
       id="path38" /><path
       d="m 3839.4314,1272.3441 c 1.495,5.732 4.797,10.033 9.909,12.902 5.111,2.866 10.472,3.427 16.081,1.683 10.846,-3.365 20.63,-5.049 29.358,-5.049 16.328,0 24.494,5.049 24.494,15.147 0,4.86 -1.87,8.788 -5.61,11.779 -3.617,2.866 -10.721,6.106 -21.316,9.724 -35.652,11.84 -53.228,30.352 -52.729,55.534 0,17.577 6.792,32.035 20.38,43.381 13.96,11.467 32.162,17.202 54.6,17.202 11.343,0 22.313,-1.373 32.91,-4.114 5.359,-1.373 9.472,-4.365 12.341,-8.975 2.866,-4.739 3.614,-9.787 2.244,-15.146 l -0.187,-0.374 c -1.247,-5.361 -4.301,-9.475 -9.162,-12.341 -4.862,-2.869 -9.975,-3.553 -15.334,-2.056 -7.479,2.118 -14.397,3.178 -20.754,3.178 -14.585,0 -21.877,-4.925 -21.877,-14.772 0,-4.487 2.117,-8.227 6.356,-11.219 3.988,-2.869 11.78,-6.296 23.374,-10.284 32.783,-11.345 49.363,-30.355 49.737,-57.03 0,-17.95 -6.669,-32.287 -20.006,-43.007 -14.088,-11.345 -33.91,-17.016 -59.461,-17.016 -14.585,0 -28.362,1.932 -41.325,5.797 -5.235,1.619 -9.226,4.798 -11.966,9.536 -2.744,4.736 -3.431,9.785 -2.057,15.146 z"
       style="fill:#0066f1;fill-opacity:1;fill-rule:nonzero;stroke:none"
       id="path42" /><path
       d="m 3089.5036,1271.1029 c 0,-16.226 -13.153,-29.379 -29.378,-29.379 -16.226,0 -29.379,13.153 -29.379,29.379 0,16.225 13.153,29.378 29.379,29.378 16.225,0 29.378,-13.153 29.378,-29.378"
       style="fill:#00ecdc;fill-opacity:1;fill-rule:nonzero;stroke:none"
       id="path50" /><path
       d="m 3591.405,1481.9515 c 0,-16.584 -13.444,-30.029 -30.029,-30.029 -16.585,0 -30.03,13.445 -30.03,30.029 0,16.585 13.445,30.03 30.03,30.03 16.585,0 30.029,-13.445 30.029,-30.03"
       style="fill:#00ecdc;fill-opacity:1;fill-rule:nonzero;stroke:none"
       id="path54" /><path
       d="m 3964.5554,1410.8021 c 0,-11.407 -9.247,-20.654 -20.654,-20.654 -11.408,0 -20.655,9.247 -20.655,20.654 0,11.407 9.247,20.654 20.655,20.654 11.407,0 20.654,-9.247 20.654,-20.654"
       style="fill:#00ecdc;fill-opacity:1;fill-rule:nonzero;stroke:none"
       id="path58" /></g></svg>